<mxfile host="app.diagrams.net" modified="2023-01-05T23:37:04.194Z" agent="5.0 (Macintosh; Intel Mac OS X 10_15_7) AppleWebKit/537.36 (KHTML, like Gecko) Chrome/108.0.0.0 Safari/537.36" etag="O1tnvkCY4vjOWyccpH4A" version="20.2.5" type="github">
  <diagram id="9cbhKFkHYGeOAWc36TkQ" name="Page-1">
    <mxGraphModel dx="1018" dy="602" grid="1" gridSize="10" guides="1" tooltips="1" connect="1" arrows="1" fold="1" page="1" pageScale="1" pageWidth="850" pageHeight="1100" math="0" shadow="0">
      <root>
        <mxCell id="0" />
        <mxCell id="1" parent="0" />
        <mxCell id="wHVp31n7A-_Si29yOLJJ-1" value="" style="swimlane;startSize=0;" vertex="1" parent="1">
          <mxGeometry x="30" y="60" width="120" height="120" as="geometry" />
        </mxCell>
        <mxCell id="wHVp31n7A-_Si29yOLJJ-2" value="&lt;font style=&quot;font-size: 18px;&quot;&gt;Users&lt;/font&gt;" style="text;html=1;align=center;verticalAlign=middle;resizable=0;points=[];autosize=1;strokeColor=none;fillColor=none;" vertex="1" parent="wHVp31n7A-_Si29yOLJJ-1">
          <mxGeometry x="25" y="40" width="70" height="40" as="geometry" />
        </mxCell>
        <mxCell id="wHVp31n7A-_Si29yOLJJ-3" value="" style="endArrow=classic;html=1;rounded=0;fontSize=18;" edge="1" parent="1">
          <mxGeometry width="50" height="50" relative="1" as="geometry">
            <mxPoint x="160" y="120" as="sourcePoint" />
            <mxPoint x="210" y="120" as="targetPoint" />
          </mxGeometry>
        </mxCell>
        <mxCell id="wHVp31n7A-_Si29yOLJJ-4" value="" style="swimlane;startSize=0;" vertex="1" parent="1">
          <mxGeometry x="220" y="60" width="120" height="120" as="geometry" />
        </mxCell>
        <mxCell id="wHVp31n7A-_Si29yOLJJ-5" value="&lt;font style=&quot;font-size: 18px;&quot;&gt;chrisminnick&lt;/font&gt;" style="text;html=1;align=center;verticalAlign=middle;resizable=0;points=[];autosize=1;strokeColor=none;fillColor=none;" vertex="1" parent="wHVp31n7A-_Si29yOLJJ-4">
          <mxGeometry y="40" width="120" height="40" as="geometry" />
        </mxCell>
        <mxCell id="wHVp31n7A-_Si29yOLJJ-6" value="" style="endArrow=classic;html=1;rounded=0;fontSize=18;" edge="1" parent="1">
          <mxGeometry width="50" height="50" relative="1" as="geometry">
            <mxPoint x="350" y="120" as="sourcePoint" />
            <mxPoint x="400" y="120" as="targetPoint" />
          </mxGeometry>
        </mxCell>
        <mxCell id="wHVp31n7A-_Si29yOLJJ-7" value="" style="swimlane;startSize=0;" vertex="1" parent="1">
          <mxGeometry x="410" y="60" width="120" height="120" as="geometry" />
        </mxCell>
        <mxCell id="wHVp31n7A-_Si29yOLJJ-8" value="&lt;font style=&quot;font-size: 18px;&quot;&gt;code&lt;/font&gt;" style="text;html=1;align=center;verticalAlign=middle;resizable=0;points=[];autosize=1;strokeColor=none;fillColor=none;" vertex="1" parent="wHVp31n7A-_Si29yOLJJ-7">
          <mxGeometry x="30" y="40" width="60" height="40" as="geometry" />
        </mxCell>
        <mxCell id="wHVp31n7A-_Si29yOLJJ-9" value="" style="endArrow=classic;html=1;rounded=0;fontSize=18;" edge="1" parent="1">
          <mxGeometry width="50" height="50" relative="1" as="geometry">
            <mxPoint x="540" y="120" as="sourcePoint" />
            <mxPoint x="590" y="120" as="targetPoint" />
          </mxGeometry>
        </mxCell>
        <mxCell id="wHVp31n7A-_Si29yOLJJ-10" value="" style="swimlane;startSize=0;" vertex="1" parent="1">
          <mxGeometry x="600" y="60" width="120" height="120" as="geometry" />
        </mxCell>
        <mxCell id="wHVp31n7A-_Si29yOLJJ-11" value="&lt;span style=&quot;font-size: 18px;&quot;&gt;src&lt;/span&gt;" style="text;html=1;align=center;verticalAlign=middle;resizable=0;points=[];autosize=1;strokeColor=none;fillColor=none;" vertex="1" parent="wHVp31n7A-_Si29yOLJJ-10">
          <mxGeometry x="35" y="40" width="50" height="40" as="geometry" />
        </mxCell>
        <mxCell id="wHVp31n7A-_Si29yOLJJ-12" value="" style="endArrow=classic;html=1;rounded=0;fontSize=18;" edge="1" parent="1">
          <mxGeometry width="50" height="50" relative="1" as="geometry">
            <mxPoint x="730" y="120" as="sourcePoint" />
            <mxPoint x="780" y="120" as="targetPoint" />
          </mxGeometry>
        </mxCell>
        <mxCell id="wHVp31n7A-_Si29yOLJJ-13" value="" style="swimlane;startSize=0;" vertex="1" parent="1">
          <mxGeometry x="790" y="60" width="120" height="120" as="geometry" />
        </mxCell>
        <mxCell id="wHVp31n7A-_Si29yOLJJ-14" value="&lt;font style=&quot;font-size: 18px;&quot;&gt;github.com&lt;/font&gt;" style="text;html=1;align=center;verticalAlign=middle;resizable=0;points=[];autosize=1;strokeColor=none;fillColor=none;" vertex="1" parent="wHVp31n7A-_Si29yOLJJ-13">
          <mxGeometry x="5" y="40" width="110" height="40" as="geometry" />
        </mxCell>
        <mxCell id="wHVp31n7A-_Si29yOLJJ-19" value="" style="endArrow=classic;html=1;rounded=0;fontSize=18;" edge="1" parent="1">
          <mxGeometry width="50" height="50" relative="1" as="geometry">
            <mxPoint x="920" y="119.5" as="sourcePoint" />
            <mxPoint x="970" y="119.5" as="targetPoint" />
          </mxGeometry>
        </mxCell>
        <mxCell id="wHVp31n7A-_Si29yOLJJ-20" value="" style="swimlane;startSize=0;" vertex="1" parent="1">
          <mxGeometry x="980" y="60" width="120" height="120" as="geometry" />
        </mxCell>
        <mxCell id="wHVp31n7A-_Si29yOLJJ-21" value="&lt;font style=&quot;font-size: 18px;&quot;&gt;chrisminnick&lt;/font&gt;" style="text;html=1;align=center;verticalAlign=middle;resizable=0;points=[];autosize=1;strokeColor=none;fillColor=none;" vertex="1" parent="wHVp31n7A-_Si29yOLJJ-20">
          <mxGeometry y="40" width="120" height="40" as="geometry" />
        </mxCell>
        <mxCell id="wHVp31n7A-_Si29yOLJJ-22" value="" style="endArrow=classic;html=1;rounded=0;fontSize=18;" edge="1" parent="1">
          <mxGeometry width="50" height="50" relative="1" as="geometry">
            <mxPoint x="1110" y="119.5" as="sourcePoint" />
            <mxPoint x="1160" y="119.5" as="targetPoint" />
          </mxGeometry>
        </mxCell>
        <mxCell id="wHVp31n7A-_Si29yOLJJ-23" value="" style="swimlane;startSize=0;" vertex="1" parent="1">
          <mxGeometry x="1170" y="60" width="120" height="120" as="geometry" />
        </mxCell>
        <mxCell id="wHVp31n7A-_Si29yOLJJ-24" value="&lt;font style=&quot;font-size: 18px;&quot;&gt;javascriptaio&lt;/font&gt;" style="text;html=1;align=center;verticalAlign=middle;resizable=0;points=[];autosize=1;strokeColor=none;fillColor=none;" vertex="1" parent="wHVp31n7A-_Si29yOLJJ-23">
          <mxGeometry y="40" width="120" height="40" as="geometry" />
        </mxCell>
      </root>
    </mxGraphModel>
  </diagram>
</mxfile>
